<?xml version='1.0' encoding='utf-8'?>
<svg xmlns="http://www.w3.org/2000/svg" version="1.1" id="svg1" viewBox="0 0 391.2179 171.26236" role="img" aria-label="The Chronicler">
  <style>:root { color: #111; }
@media (prefers-color-scheme: dark) {
  :root { color: #fff; }
}</style><g id="g1" transform="translate(-45.858268,-104.27257)">
    <path style="fill:currentColor" d="m 189.32731,274.69237 c -11.08569,-2.35251 -21.45914,-7.49304 -30.5,-14.2666 -18.51213,10.34856 -40.49378,17.63869 -61.450699,10.26413 -36.232149,-11.5681 -54.674664,-52.54104 -51.238156,-88.50714 1.174576,-32.66955 21.94078,-66.59996 55.208035,-74.25618 20.01791,-5.19128 40.94434,1.17859 57.82151,12.20502 15.12123,-11.28784 34.11389,-18.91811 53.18198,-14.48486 11.769,2.03335 22.3709,7.68312 32.95126,12.9299 17.70945,-13.72436 42.15069,-18.698546 63.19636,-9.88962 8.13627,0.3071 15.76651,12.78788 22.88688,8.57881 23.48427,-19.465419 60.01455,-15.0054 81.066,5.90948 26.00426,24.26166 29.24547,64.54127 19.80404,97.03159 -8.52393,29.95934 -35.93109,58.16666 -69.05619,55.11945 -16.97063,3.68448 -30.56101,-22.73934 -44.72428,-9.6851 -19.43064,12.78571 -45.32044,12.47445 -65.08002,0.57872 -12.22392,-11.91718 -23.10392,6.00871 -36.52129,6.47153 -8.95532,2.20384 -18.36673,3.56185 -27.54543,2.00087 z m -52.5714,-12.99238 c 5.6591,-2.37262 21.16011,-4.42219 11.43706,-11.86776 -12.68537,-14.17205 -20.17237,-32.48117 -20.28248,-51.55966 -1.07873,-25.06738 6.60433,-49.99084 20.05069,-70.96971 -4.74025,-17.28282 -31.17023,-10.45749 -44.67481,-7.72888 -26.644888,7.28638 -41.127714,35.93569 -44.00958,61.61715 -3.889963,34.00464 15.218022,74.05652 50.95257,81.48339 8.76245,1.77092 17.89714,1.2594 26.52655,-0.97453 z m 94.37723,-3.46706 c 13.27846,-4.33794 -9.32167,-18.45424 -9.05938,-28.28806 -12.75668,-31.23777 -10.11517,-69.12811 9.81433,-96.83735 5.37117,-8.7812 -5.12439,3.72075 -0.0802,-6.63715 -10.91733,-9.0057 -28.39488,-3.84226 -41.46368,-1.36354 -4.89863,1.86406 -19.18864,6.42824 -14.36072,12.7997 6.56615,11.23622 13.21008,23.2217 16.11774,35.40151 2.57405,21.82388 1.22781,45.15446 -11.76847,63.7659 -12.1592,14.31568 11.25604,19.83141 21.73775,21.42386 9.55722,1.51084 19.63818,2.52996 29.06259,-0.26487 z m 79.74432,-1.30766 c 2.72948,-2.80173 4.3074,-8.29921 3.91064,-3.18812 6.82362,6.06392 -2.19865,-12.54663 -5.33783,-15.98383 -13.79667,-28.72259 -15.68336,-64.02138 -1.86322,-93.10156 4.71464,-6.14213 15.0196,-15.87164 2.32483,-19.63581 -16.21578,-6.26371 -36.50795,-4.05292 -49.33916,8.28006 11.23781,19.41831 16.51956,42.16144 15.14345,64.54291 -2.48204,-4.79578 -0.93511,9.64944 0.10558,6.58053 -1.16551,15.24175 -8.60653,28.95938 -14.3931,42.76727 9.47167,12.52215 30.44747,12.3822 45.33088,11.58604 l 1.83888,-0.46942 2.27902,-1.37807 z m 0.0141,-121.89366 c 3.77849,-4.98049 -1.26662,4.57439 0,0 z m 62.47606,121.28548 c 27.80397,-5.12195 41.27852,-35.34519 42.03443,-61.05507 1.14943,-25.25624 -6.81964,-55.96048 -31.86403,-67.22731 -12.3421,-5.70909 -34.34461,-3.24888 -38.24383,10.91604 8.85726,15.48074 14.18189,33.74801 14.73447,51.74126 0.34902,19.18475 -6.86928,37.66445 -17.08743,53.62035 7.3366,8.23767 19.18295,14.9113 30.42639,12.00473 z M 260.70887,243.7728 c 0.13148,-4.19449 -2.82293,5.23149 0,0 z m -81.60896,-8.49945 c 2.957,-4.9758 12.99679,-22.65517 8.2274,-22.67574 -2.1535,9.90738 -13.69388,22.60862 -13.5625,29.44657 2.16538,-1.93133 3.69102,-4.41826 5.3351,-6.77083 z m 163.92077,2.02399 c -8.83757,-3.93195 3.58499,10.45009 0,0 z m -171.77366,-2.9726 c 2.46168,-6.79604 -5.27518,9.53193 0,0 z m 90.24046,-12.97385 c 3.7988,-14.9224 7.35719,-31.16463 3.95644,-46.39101 -3.91327,-8.02329 -5.82855,-30.97877 -12.3626,-30.51133 -13.02754,22.40856 -10.31994,49.65309 -7.70826,74.35558 0.47142,8.59866 3.87529,15.67394 10.63574,13.33854 -5.64079,15.96759 5.87176,-9.91955 5.47868,-10.79178 z m 82.41002,1.22767 c 8.38822,-15.95435 8.36367,-34.64053 5.88398,-52.01931 4.86694,2.34212 1.79542,-12.94728 -1.5182,-3.85574 -3.52671,-6.59029 -9.80247,-29.94968 -13.83835,-10.91888 -4.67343,24.36058 -2.88903,49.60128 0.29484,74.03582 1.44718,13.61504 7.05817,-4.50013 9.17773,-7.24189 z m -170.66853,2.66886 c 3.13461,-4.69738 4.18401,-5.98495 3.07693,-0.71077 5.50121,-6.54724 -0.90674,-8.89623 3.09927,-10.71191 3.07638,-5.30456 2.90856,-21.50677 1.86815,-31.42405 -1.37463,-10.99918 -3.12473,-34.00307 -15.04965,-34.06236 -9.3344,22.28497 -9.07641,47.92931 -4.34162,71.32446 2.14928,6.80641 4.7259,19.45332 11.34692,5.58463 z m 90.90521,4.55086 c -2.25073,0.60789 -1.90437,5.56167 0,0 z m 2.55476,-4.97354 c -0.33514,-5.49292 -2.96263,5.18101 0,0 z m 4.44524,-4.02646 c -2.25073,0.60789 -1.90437,5.56167 0,0 z m 3.03201,-10.97354 c -1.92695,-1.36983 -3.88394,17.24604 -0.38957,3.14687 l 0.3896,-3.14687 z m -6.1766,5.25 c -1.73472,-0.32332 1.04985,6.68187 0,0 z m 1.02083,-3.9375 c -1.79702,-0.71399 0.67279,4.26888 0,0 z m 0.97917,-6.0625 c -1.73472,-0.32332 1.04985,6.68187 0,0 z m 0,-26 c -1.73472,-0.32332 1.04985,6.68187 0,0 z m -1,-6 c -1.73472,-0.32332 1.04985,6.68187 0,0 z m 3.02083,-1.9375 c -1.79702,-0.71399 0.67279,4.26888 0,0 z m 78.31689,-11.12137 c -3.44737,-11.6369 -1.99845,4.57295 0,0 z M 260.62,137.33599 c -4.26698,-5.29914 0.40299,6.12317 0,0 z" id="path3" />
  </g>
</svg>